<svg width="185" height="185" viewBox="0 0 185 185" fill="none" xmlns="http://www.w3.org/2000/svg">
<path fill-rule="evenodd" clip-rule="evenodd" d="M26.0202 122.685C26.6376 122.465 27.2874 122.172 27.7885 121.749C28.3836 121.246 28.6256 120.598 28.7882 119.917C28.9968 119.041 29.0802 118.108 29.3332 117.231C29.4269 116.905 29.6072 116.782 29.6846 116.727C29.8801 116.589 30.0778 116.552 30.2637 116.566C30.4841 116.582 30.7868 116.665 30.9859 117.035C31.0143 117.088 31.0512 117.168 31.076 117.279C31.0941 117.36 31.1058 117.613 31.125 117.717C31.1729 117.974 31.213 118.231 31.2506 118.489C31.3759 119.349 31.4479 120.079 31.8436 120.869C32.3805 121.942 32.9185 122.598 33.6481 122.888C34.3536 123.169 35.1972 123.117 36.2749 122.896C36.3775 122.871 36.4789 122.85 36.5794 122.833C37.0545 122.75 37.5088 123.062 37.6021 123.535C37.6954 124.008 37.3935 124.469 36.9225 124.573C36.8242 124.595 36.7274 124.615 36.6315 124.634C35.1752 124.995 33.4891 126.281 32.5093 127.408C32.2073 127.756 31.7652 128.727 31.3141 129.346C30.9813 129.803 30.6072 130.105 30.2932 130.211C30.0827 130.283 29.9053 130.272 29.7587 130.236C29.5458 130.183 29.3691 130.068 29.2335 129.884C29.1597 129.784 29.0912 129.649 29.0586 129.478C29.043 129.395 29.0412 129.185 29.0415 129.09C28.9496 128.774 28.8371 128.465 28.7552 128.146C28.5596 127.385 28.176 126.903 27.7204 126.266C27.2941 125.67 26.8364 125.296 26.1653 124.997C26.078 124.976 25.3736 124.803 25.1248 124.704C24.7614 124.559 24.5883 124.316 24.5254 124.185C24.4186 123.963 24.4076 123.769 24.4289 123.607C24.4605 123.368 24.5677 123.164 24.7579 122.999C24.8757 122.896 25.0517 122.797 25.2874 122.748C25.4694 122.71 25.9524 122.688 26.0202 122.685ZM30.1526 121.444C30.1853 121.517 30.2201 121.59 30.257 121.664C31.0434 123.234 31.9227 124.111 32.9916 124.537L33.0275 124.551C32.3124 125.082 31.6651 125.675 31.1704 126.244C30.9667 126.478 30.697 126.964 30.4057 127.463C30.1409 126.603 29.708 125.995 29.1636 125.233C28.7477 124.653 28.3119 124.215 27.7764 123.859C28.192 123.646 28.5884 123.396 28.9337 123.104C29.5086 122.618 29.8886 122.056 30.1526 121.444Z" fill="#1749B3"/>
<circle cx="41.72" cy="17.9533" r="3.46" fill="#1749B3"/>
<circle cx="179.543" cy="90.0367" r="3.46" fill="#1749B3"/>
<path d="M98.81 145.973C135.117 145.973 164.55 116.541 164.55 80.2333C164.55 43.9261 135.117 14.4933 98.81 14.4933C62.5028 14.4933 33.07 43.9261 33.07 80.2333C33.07 116.541 62.5028 145.973 98.81 145.973Z" fill="url(#paint0_linear_546_887)"/>
<path fill-rule="evenodd" clip-rule="evenodd" d="M98.5217 40.4433C105.688 40.4433 111.497 34.6342 111.497 27.4683C111.497 20.3024 105.688 14.4933 98.5217 14.4933C91.3558 14.4933 85.5467 20.3024 85.5467 27.4683C85.5467 34.6342 91.3558 40.4433 98.5217 40.4433ZM98.2334 34.6767C102.055 34.6767 105.153 31.5785 105.153 27.7567C105.153 23.9349 102.055 20.8367 98.2334 20.8367C94.4115 20.8367 91.3134 23.9349 91.3134 27.7567C91.3134 31.5785 94.4115 34.6767 98.2334 34.6767Z" fill="#011625"/>
<path d="M98.2622 131.614C112.291 131.614 123.664 120.241 123.664 106.212C123.664 92.1829 112.291 80.81 98.2622 80.81C84.233 80.81 72.86 92.1829 72.86 106.212C72.86 120.241 84.233 131.614 98.2622 131.614Z" fill="#FE0000"/>
<path d="M138.466 87.3257V67.8372C138.466 57.2072 134.243 47.0126 126.726 39.496C119.21 31.9794 109.015 27.7567 98.3851 27.7567C87.7551 27.7567 77.5604 31.9794 70.0439 39.496C62.5273 47.0126 58.3046 57.2072 58.3046 67.8372V87.3257C58.305 91.8031 57.0384 96.1891 54.6512 99.9769C52.264 103.765 48.8535 106.8 44.8141 108.731C43.8857 109.173 43.102 109.87 42.5542 110.74C42.0065 111.61 41.7172 112.618 41.7201 113.647V113.752C41.7194 114.124 41.7919 114.491 41.9336 114.835C42.0752 115.178 42.2832 115.49 42.5455 115.753C42.8079 116.016 43.1196 116.224 43.4626 116.367C43.8057 116.509 44.1735 116.582 44.5449 116.582H152.22C152.591 116.582 152.959 116.509 153.302 116.367C153.645 116.224 153.957 116.016 154.219 115.753C154.482 115.49 154.69 115.178 154.831 114.835C154.973 114.491 155.046 114.124 155.045 113.752V113.647C155.045 112.622 154.755 111.617 154.209 110.75C153.662 109.883 152.881 109.188 151.956 108.747C147.914 106.814 144.502 103.777 142.115 99.9861C139.727 96.1952 138.462 91.8057 138.466 87.3257Z" fill="#E1DCEB"/>
<path fill-rule="evenodd" clip-rule="evenodd" d="M155.323 116.563H41.72V113.103H155.323V116.563Z" fill="#011625"/>
<path fill-rule="evenodd" clip-rule="evenodd" d="M67.1558 125.387C64.3932 127.886 61.6384 130.333 58.9499 132.911C58.3695 133.464 58.3477 134.374 58.8968 134.948C59.4476 135.528 60.3636 135.546 60.9385 134.995C63.6141 132.434 66.3448 130.007 69.089 127.526C69.6802 126.988 69.7259 126.076 69.197 125.489C68.6609 124.899 67.747 124.85 67.1558 125.387Z" fill="#011625"/>
<path fill-rule="evenodd" clip-rule="evenodd" d="M129.56 125.388C132.307 127.888 135.047 130.336 137.719 132.914C138.296 133.466 138.314 134.376 137.762 134.949C137.209 135.528 136.294 135.545 135.723 134.994C133.063 132.432 130.347 130.004 127.618 127.523C127.031 126.986 126.989 126.074 127.521 125.488C128.059 124.899 128.972 124.851 129.56 125.388Z" fill="#011625"/>
<path fill-rule="evenodd" clip-rule="evenodd" d="M96.5911 141.531C96.5474 145.247 96.4715 148.924 96.536 152.64C96.547 153.439 97.1998 154.071 97.9932 154.056C98.7919 154.044 99.4269 153.384 99.4135 152.59C99.3522 148.894 99.4264 145.249 99.4709 141.558C99.478 140.761 98.8401 140.11 98.0511 140.101C97.2545 140.096 96.5982 140.733 96.5911 141.531Z" fill="#011625"/>
<defs>
<linearGradient id="paint0_linear_546_887" x1="98.3032" y1="-6.91323" x2="99.6499" y2="223.956" gradientUnits="userSpaceOnUse">
<stop stop-color="#F9F9F9"/>
<stop offset="1" stop-color="#EFEFEF"/>
</linearGradient>
</defs>
</svg>
